<svg id="Calque_1" data-name="Calque 1" xmlns="http://www.w3.org/2000/svg" viewBox="0 0 100 100"><path d="M41.4,37.71a1.55,1.55,0,0,1-1.52-1.83,9.37,9.37,0,0,1,9.67-8.17c7.64,0,10.07,4.7,10.07,7.81a7.53,7.53,0,0,1-3.4,6.84c-1.74,1.3-3.6,2.35-4,4.74h0a1.54,1.54,0,0,1-1.54,1.54H48.33A1.53,1.53,0,0,1,46.8,47.1v-.29a7.94,7.94,0,0,1,3.52-6.35c1.57-1.25,3-2.18,3-4.37,0-2.47-1.29-3.64-3.44-3.64-2.47,0-3.72,1.72-4.07,4a1.51,1.51,0,0,1-1.51,1.27Zm6.37,13.35H51a1.54,1.54,0,0,1,1.54,1.54v3.16A1.53,1.53,0,0,1,51,57.29H47.77a1.53,1.53,0,0,1-1.54-1.53V52.6A1.54,1.54,0,0,1,47.77,51.06Z"/><path d="M13.23,86.14A3.56,3.56,0,0,1,12,85.93a3.45,3.45,0,0,1-2.32-3.29V21.5a7.65,7.65,0,0,1,7.64-7.64H90.28V65.94a7.66,7.66,0,0,1-7.65,7.65H25.14L15.92,84.86A3.46,3.46,0,0,1,13.23,86.14Zm4.13-69.27a4.63,4.63,0,0,0-4.63,4.63V82.64a.48.48,0,0,0,.86.31L23.72,70.58H82.63a4.64,4.64,0,0,0,4.64-4.64V16.87Z"/></svg>