<svg width="120" height="11" viewBox="0 0 120 11" fill="none" xmlns="http://www.w3.org/2000/svg">
<path d="M6.18995 10.26C9.47895 10.26 11.819 8.557 11.897 6.1H8.90695C8.77695 7.218 7.65895 7.985 6.18995 7.985C4.48695 7.985 3.30395 6.945 3.30395 5.45C3.30395 3.916 4.48695 2.85 6.18995 2.85C7.71095 2.85 8.82895 3.617 8.90695 4.735L11.897 4.67C11.832 2.291 9.49195 0.64 6.18995 0.64C2.69295 0.64 0.261953 2.616 0.261953 5.45C0.261953 8.284 2.69295 10.26 6.18995 10.26ZM15.6614 0.899999H12.7364V10H19.7564V7.79H15.6614V0.899999ZM31.4655 10L27.5005 0.899999H23.8605L19.8955 10H22.9635L23.7045 8.18H27.6305L28.3715 10H31.4655ZM25.6805 3.37L26.7855 6.1H24.5625L25.6805 3.37ZM36.21 10.26C39.317 10.26 41.215 8.609 41.215 5.905V0.899999H38.29V5.645C38.29 7.075 37.562 7.855 36.21 7.855C34.858 7.855 34.13 7.075 34.13 5.645V0.899999H31.205V5.905C31.205 8.609 33.103 10.26 36.21 10.26ZM46.933 10C50.638 10 52.913 8.271 52.913 5.45C52.913 2.629 50.638 0.899999 46.933 0.899999H42.253V10H46.933ZM45.243 2.98H46.803C48.74 2.98 49.923 3.916 49.923 5.45C49.923 6.984 48.74 7.92 46.803 7.92H45.243V2.98ZM56.6799 10V0.899999H53.7549V10H56.6799ZM65.5255 0.899999H57.8555V10H65.5905V7.79H60.7805V6.36H64.8755V4.41H60.7805V3.045H65.5255V0.899999ZM74.7066 10.26C77.9956 10.26 80.3356 8.557 80.4136 6.1H77.4236C77.2936 7.218 76.1756 7.985 74.7066 7.985C73.0036 7.985 71.8206 6.945 71.8206 5.45C71.8206 3.916 73.0036 2.85 74.7066 2.85C76.2276 2.85 77.3456 3.617 77.4236 4.735L80.4136 4.67C80.3486 2.291 78.0086 0.64 74.7066 0.64C71.2096 0.64 68.7786 2.616 68.7786 5.45C68.7786 8.284 71.2096 10.26 74.7066 10.26ZM91.4636 10L87.4986 0.899999H83.8586L79.8936 10H82.9616L83.7026 8.18H87.6286L88.3696 10H91.4636ZM85.6786 3.37L86.7836 6.1H84.5606L85.6786 3.37ZM94.7801 10V7.14H96.3401C97.4061 7.14 98.0041 7.582 98.0301 8.31L98.0951 10H101.15L101.085 7.92C101.046 6.49 100.162 5.619 98.6671 5.619H98.6021V5.567H98.6671C100.045 5.567 100.89 4.8 100.89 3.565C100.89 1.914 99.2651 0.899999 96.6001 0.899999H91.7901V10H94.7801ZM94.7801 2.915H96.4701C97.3541 2.915 97.9001 3.331 97.9001 4.02C97.9001 4.709 97.3541 5.125 96.4701 5.125H94.7801V2.915ZM109.731 0.899999H102.061V10H109.796V7.79H104.986V6.36H109.081V4.41H104.986V3.045H109.731V0.899999ZM115.129 10.26C117.703 10.26 119.744 9.246 119.744 7.27C119.744 5.814 118.73 4.553 116.26 4.254L114.336 4.02C113.803 3.955 113.478 3.708 113.478 3.37C113.478 2.928 114.011 2.655 114.882 2.655C115.935 2.655 116.624 3.097 116.689 3.825H119.484C119.484 1.849 117.664 0.64 114.947 0.64C112.061 0.64 110.488 1.901 110.488 3.63C110.488 5.437 111.918 6.347 113.699 6.568L115.597 6.802C116.338 6.893 116.728 7.153 116.728 7.53C116.728 7.946 116.195 8.18 115.194 8.18C113.985 8.18 113.244 7.686 113.179 6.88H110.254C110.319 8.973 112.204 10.26 115.129 10.26Z" fill="black"/>
</svg>
