<svg id="Calque_1" data-name="Calque 1" xmlns="http://www.w3.org/2000/svg" viewBox="0 0 187 198" width="48px" height="48px">
<defs>
<style>.cls-1{fill:#1d1d1b;stroke:#fff;stroke-miterlimit:10;}</style></defs>
<title>PInch-zoom-Noire</title>
<polygon class="cls-1" points="101.2 101.3 152.1 50.4 152.8 49.7 152.1 49 145.9 42.8 145.2 42.1 144.5 42.8 93.6 93.7 42.7 42.8 42 42.1 41.3 42.8 35.1 49 34.4 49.7 35.1 50.4 86 101.3 35.1 152.2 34.4 152.9 35.1 153.6 41.3 159.8 42 160.5 42.7 159.8 93.6 108.9 144.5 159.8 145.2 160.5 145.9 159.8 152.1 153.6 152.8 152.9 152.1 152.2 101.2 101.3"/></svg>