<svg id="Calque_1" data-name="Calque 1" xmlns="http://www.w3.org/2000/svg" viewBox="0 0 184 175" width="43px" height="43px"><defs><style>.cls-1{stroke:#fff;stroke-miterlimit:10;}</style></defs><title>PInch-zoom-Noire</title><polygon class="cls-1" points="170.8 82.1 98.7 82.1 98.7 10 98.7 9 97.7 9 89 9 88 9 88 10 88 82.1 15.9 82.1 14.9 82.1 14.9 83.1 14.9 91.8 14.9 92.8 15.9 92.8 88 92.8 88 164.9 88 165.9 89 165.9 97.7 165.9 98.7 165.9 98.7 164.9 98.7 92.8 170.8 92.8 171.8 92.8 171.8 91.8 171.8 83.1 171.8 82.1 170.8 82.1"/></svg>