<svg id="Calque_1" data-name="Calque 1" xmlns="http://www.w3.org/2000/svg" viewBox="0 0 100 100"><path d="M71.2,41.27H69.78V32.69a16.7,16.7,0,0,0-1.43-7,19.39,19.39,0,0,0-15.62-11,20.79,20.79,0,0,0-18.62,8,17.14,17.14,0,0,0-3.32,10.34v8.19h-2a5,5,0,0,0-4.95,4.95V80.43a5,5,0,0,0,4.95,4.95H71.2a5,5,0,0,0,4.94-4.95V46.22A5,5,0,0,0,71.2,41.27ZM33.67,33.08a14.26,14.26,0,0,1,2.75-8.62,17.84,17.84,0,0,1,16-6.86,16.64,16.64,0,0,1,13.3,9.29,13.88,13.88,0,0,1,1.18,5.8v8.58H65.2V34.69a16,16,0,0,0-1.07-6,15,15,0,0,0-11.9-9.5,15.07,15.07,0,0,0-14.24,7A16.17,16.17,0,0,0,35.51,35v6.24H33.67Zm4.72,8.19V35a13.27,13.27,0,0,1,2-7.27,12.19,12.19,0,0,1,11.47-5.67,12.23,12.23,0,0,1,9.57,7.71,13,13,0,0,1,.87,4.89v6.58ZM73.26,80.43A2.07,2.07,0,0,1,71.2,82.5H28.81a2.07,2.07,0,0,1-2.07-2.07V46.22a2.07,2.07,0,0,1,2.07-2.07H71.2a2.07,2.07,0,0,1,2.06,2.07Z"/><path d="M59.79,55.07a1.44,1.44,0,0,0-2,.44L49.74,68.2,44,63.29a1.44,1.44,0,0,0-1.88,2.19l7,6a1.45,1.45,0,0,0,.94.34h.21a1.43,1.43,0,0,0,1-.65l8.95-14.1A1.43,1.43,0,0,0,59.79,55.07Z"/></svg>