<?xml version="1.0" encoding="utf-8"?>
<!-- Generator: Adobe Illustrator 22.1.0, SVG Export Plug-In . SVG Version: 6.00 Build 0)  -->
<svg version="1.1" id="Calque_1" xmlns="http://www.w3.org/2000/svg" xmlns:xlink="http://www.w3.org/1999/xlink" x="0px" y="0px"
	 viewBox="0 0 221 231" style="enable-background:new 0 0 221 231;" xml:space="preserve" width="60px" height="60px">
<style type="text/css">
	.st0{fill:#002740;}
	.st1{fill:#FFFFFF;}
	.st2{fill:#002740;stroke:#FFFFFF;stroke-miterlimit:10;}
</style>
<g>
	<polygon class="st0" points="-159.9,165.3 -159.9,92.3 -233,92.3 -233,82.6 -159.9,82.6 -159.9,9.5 -150.2,9.5 -150.2,82.6 
		-77.2,82.6 -77.2,92.3 -150.2,92.3 -150.2,165.3 	"/>
	<path class="st1" d="M-150.7,10v73.1h73.1v8.7h-73.1v73.1h-8.7V91.8h-73.1v-8.7h73.1V10H-150.7 M-149.7,9h-1h-8.7h-1v1v72.1h-72.1
		h-1v1v8.7v1h1h72.1v72.1v1h1h8.7h1v-1V92.8h72.1h1v-1v-8.7v-1h-1h-72.1V10L-149.7,9L-149.7,9z"/>
</g>
<path class="st2" d="M105.7,107.6L29.4,31.3l12.1-12.1c0,0-28.6-0.3-29,0v29l11.9-11.9l76.3,76.3L105.7,107.6z"/>
<path class="st2" d="M114.3,126.1l76.3,76.3l-12.1,12.1c0,0,28.6,0.3,29,0v-29l-11.9,11.9l-76.3-76.3L114.3,126.1z"/>
<g>
	<polygon class="st0" points="365.2,102.3 313.5,153.9 306.6,147.1 358.3,95.4 306.6,43.7 313.5,36.9 365.2,88.5 416.8,36.9 
		423.7,43.7 372.1,95.4 423.7,147.1 416.8,153.9 	"/>
	<path class="st1" d="M416.8,37.6l6.2,6.2l-51.7,51.7l51.7,51.7l-6.2,6.2l-51.7-51.7l-51.7,51.7l-6.2-6.2l51.7-51.7l-51.7-51.7
		l6.2-6.2l51.7,51.7L416.8,37.6 M416.8,36.1l-0.7,0.7l-50.9,50.9l-50.9-50.9l-0.7-0.7l-0.7,0.7l-6.2,6.2l-0.7,0.7l0.7,0.7l50.9,50.9
		l-50.9,50.9l-0.7,0.7l0.7,0.7l6.2,6.2l0.7,0.7l0.7-0.7l50.9-50.9l50.9,50.9l0.7,0.7l0.7-0.7l6.2-6.2l0.7-0.7l-0.7-0.7l-50.9-50.9
		l50.9-50.9l0.7-0.7l-0.7-0.7l-6.2-6.2L416.8,36.1L416.8,36.1z"/>
</g>
</svg>
