<svg id="Calque_1" data-name="Calque 1" xmlns="http://www.w3.org/2000/svg" viewBox="0 0 100 100"><path d="M75.37,26.54a34.95,34.95,0,0,0-51.43-.8A35.74,35.74,0,0,0,13.78,48.63a1.7,1.7,0,0,0,1.69,1.79h0a1.68,1.68,0,0,0,1.68-1.57,32.38,32.38,0,0,1,9.2-20.74,32,32,0,1,1,23.55,54.3h-.67a31.34,31.34,0,0,1-11.48-2.19l2.16-3.29a.65.65,0,0,0-.67-1l-6.69,1.39a1.77,1.77,0,0,0-1.38,2.09l1.39,6.68a.65.65,0,0,0,1.18.23l2.11-3.21a34.74,34.74,0,0,0,13.38,2.69H50A35.31,35.31,0,0,0,75.37,26.54Z"/><path d="M69.84,57.46l-19-7.84V25.41a1.5,1.5,0,1,0-3,0V50.29a2.37,2.37,0,0,0,1,1.77l19.85,8.18a1.65,1.65,0,0,0,.57.11,1.5,1.5,0,0,0,.58-2.89Z"/></svg>