<svg id="Calque_1" data-name="Calque 1" xmlns="http://www.w3.org/2000/svg" viewBox="0 0 100 100"><defs><style>.cls-1{fill-rule:evenodd;}</style></defs><path class="cls-1" d="M50,13.07a1.82,1.82,0,0,0-.52.08L15.48,24a1.7,1.7,0,0,0-.72.3,1.74,1.74,0,0,0-.64.8,1.7,1.7,0,0,0,0,1V74.34a1.65,1.65,0,0,0,.32,1,1.63,1.63,0,0,0,.85.61L49.31,86.78a2,2,0,0,0,.59.15,1.53,1.53,0,0,0,.6-.08h0l34.29-10.9A1.7,1.7,0,0,0,86,74.34V25.66s0,0,0-.05v0a1.55,1.55,0,0,0-.11-.56,2,2,0,0,0-.31-.5,1.74,1.74,0,0,0-.45-.36,1.78,1.78,0,0,0-.55-.18l-34-10.83a1.62,1.62,0,0,0-.49-.08Zm0,3.44,11.6,3.69L32.87,29.35,21.3,25.67ZM67.17,22l11.62,3.7L50.06,34.82,38.41,31.11ZM17.41,28l13.78,4.39L31.06,44.1a1.62,1.62,0,0,0,.11.65,1.69,1.69,0,0,0,1.54,1.07,1.63,1.63,0,0,0,1.2-.49,1.69,1.69,0,0,0,.49-1.19l.12-10.74,13.84,4.4V83L17.41,73.11Zm65.23,0V73.11L51.7,83V37.82Z"/></svg>